<svg xmlns="http://www.w3.org/2000/svg" viewBox="0 0 480 360" fill="none">
  <rect width="480" height="360" rx="16" fill="#fff0f3"/>
  <rect x="48" y="56" width="384" height="248" rx="12" fill="#fff" stroke="#d6234a" stroke-width="2"/>
  <circle cx="88" cy="96" r="20" fill="#fce4ec"/>
  <path d="M80 96l6 6 14-14" stroke="#b91c3e" stroke-width="3" stroke-linecap="round" stroke-linejoin="round"/>
  <rect x="124" y="84" width="200" height="10" rx="3" fill="#e5e5e5"/>
  <rect x="124" y="102" width="160" height="8" rx="2" fill="#f5f5f5"/>
  <circle cx="88" cy="152" r="20" fill="#fce4ec"/>
  <path d="M80 152l6 6 14-14" stroke="#b91c3e" stroke-width="3" stroke-linecap="round" stroke-linejoin="round"/>
  <rect x="124" y="140" width="220" height="10" rx="3" fill="#e5e5e5"/>
  <rect x="124" y="158" width="140" height="8" rx="2" fill="#f5f5f5"/>
  <circle cx="88" cy="208" r="20" fill="#f5f5f5"/>
  <rect x="124" y="196" width="180" height="10" rx="3" fill="#e5e5e5"/>
  <rect x="124" y="214" width="120" height="8" rx="2" fill="#f5f5f5"/>
  <rect x="320" y="240" width="112" height="40" rx="8" fill="#d6234a"/>
</svg>
